<?xml version="1.0" standalone="no"?>
<!DOCTYPE svg PUBLIC "-//W3C//DTD SVG 20010904//EN"
 "http://www.w3.org/TR/2001/REC-SVG-20010904/DTD/svg10.dtd">
<svg version="1.0" xmlns="http://www.w3.org/2000/svg"
 width="1000.000000pt" height="1000.000000pt" viewBox="0 0 1000.000000 1000.000000"
 preserveAspectRatio="xMidYMid meet">
<metadata>
Created by potrace 1.11, written by Peter Selinger 2001-2013
</metadata>
<g transform="translate(0.000000,1000.000000) scale(0.100000,-0.100000)"
fill="#000000" stroke="none">
<path d="M5489 9782 c-47 -23 -72 -50 -90 -97 -24 -61 -21 -706 3 -750 38 -71
96 -108 168 -108 71 0 132 38 165 102 15 30 17 72 17 380 1 334 0 348 -21 388
-32 64 -80 95 -150 98 -38 2 -70 -3 -92 -13z"/>
<path d="M6774 9447 c-60 -30 -68 -40 -156 -191 -46 -77 -89 -150 -95 -161 -7
-11 -16 -28 -19 -37 -3 -10 -11 -18 -17 -18 -6 0 -8 -3 -4 -6 3 -4 -6 -25 -21
-48 -16 -22 -39 -62 -52 -88 -14 -27 -28 -48 -32 -48 -5 0 -19 -55 -23 -95 -2
-22 18 -82 38 -112 55 -82 211 -96 277 -25 21 22 150 240 150 252 0 6 5 10 10
10 6 0 10 4 10 10 0 5 32 62 70 126 39 65 70 119 70 122 0 2 9 16 20 32 24 34
34 95 26 153 -9 58 -70 123 -127 132 -74 13 -86 12 -125 -8z"/>
<path d="M4241 9440 c-28 -9 -61 -26 -72 -36 -34 -31 -59 -90 -59 -140 0 -48
14 -79 98 -218 23 -37 42 -72 42 -77 0 -5 4 -9 9 -9 5 0 11 -8 15 -17 3 -10
14 -31 23 -48 10 -16 49 -82 87 -145 74 -126 111 -165 167 -180 131 -35 253
68 233 197 -5 36 -47 120 -103 208 -14 22 -26 42 -26 45 0 3 -8 16 -17 30 -9
14 -55 93 -103 175 -94 161 -116 192 -155 207 -58 24 -88 25 -139 8z"/>
<path d="M5538 8455 c-1 -2 -28 -5 -58 -6 -66 -3 -118 -18 -197 -55 -49 -24
-118 -87 -432 -399 -206 -203 -381 -378 -390 -387 -21 -25 -27 -23 -42 15 -19
45 -73 107 -143 165 -30 24 -162 82 -202 89 -52 8 -170 9 -213 1 -57 -11 -144
-50 -196 -89 -27 -20 -287 -272 -576 -560 -538 -536 -620 -627 -725 -804 -103
-172 -219 -478 -240 -629 -2 -17 -6 -42 -9 -56 -11 -53 -23 -157 -24 -216 -1
-40 -9 -48 -349 -390 -210 -210 -361 -370 -380 -401 -47 -77 -73 -165 -76
-252 -3 -92 13 -163 55 -250 29 -60 92 -127 716 -752 717 -718 733 -733 858
-773 28 -9 82 -17 120 -18 176 -6 269 36 429 192 l113 110 344 -342 c298 -297
353 -348 410 -376 36 -19 83 -38 105 -43 63 -17 185 -21 234 -9 25 6 56 13 70
16 13 3 52 19 85 37 48 25 130 100 417 386 197 195 364 356 371 357 8 1 50 4
93 8 43 3 90 8 104 11 14 3 43 7 65 10 22 3 52 7 67 10 51 10 263 73 303 91
22 10 49 19 59 21 11 2 27 10 36 18 9 8 23 15 31 16 8 0 37 14 64 30 28 15 59
32 70 38 31 14 227 146 252 170 12 12 24 21 27 21 9 0 40 31 786 776 1169
1166 1089 1080 1125 1208 19 65 22 196 6 237 -5 15 -7 29 -4 32 2 3 -14 44
-37 92 -47 95 -126 184 -204 230 l-46 27 33 41 c19 23 43 58 54 77 27 44 65
158 58 170 -3 5 -2 11 2 13 10 6 9 149 -1 165 -4 6 -5 12 -2 12 3 0 -6 33 -21
73 -47 131 -134 233 -250 294 -29 16 -53 33 -53 38 0 6 7 32 15 60 16 51 21
180 10 225 -3 14 -8 36 -11 50 -12 60 -71 158 -134 222 -36 38 -71 68 -77 68
-7 0 -13 3 -13 8 0 11 -99 59 -158 75 -91 26 -278 16 -319 -16 -10 -7 -17 0
-29 24 -33 73 -49 95 -110 155 -182 181 -473 204 -673 52 l-23 -18 -45 67
c-25 37 -54 76 -66 86 -12 10 -34 29 -49 43 -15 13 -31 24 -34 24 -3 0 -18 8
-32 19 -23 15 -77 38 -117 47 -5 2 -21 6 -35 9 -53 14 -186 7 -244 -13 l-57
-19 -13 21 c-7 11 -26 43 -41 70 -68 121 -226 224 -368 242 -23 3 -47 7 -54 9
-6 2 -13 2 -15 0z m59 -381 c78 -35 121 -137 92 -216 -11 -30 -202 -227 -809
-836 -438 -438 -807 -810 -820 -827 -78 -96 -190 -256 -190 -273 0 -5 -7 -15
-15 -22 -8 -7 -15 -21 -15 -31 0 -11 -4 -19 -9 -19 -4 0 -26 -42 -49 -92 -46
-107 -93 -228 -87 -228 2 0 -2 -15 -10 -34 -8 -18 -17 -48 -20 -67 -3 -18 -8
-35 -10 -39 -2 -4 -7 -20 -9 -36 -3 -16 -8 -40 -11 -54 -2 -13 -7 -42 -10 -65
-3 -22 -8 -47 -10 -55 -2 -8 -7 -54 -10 -102 l-6 -86 -196 -196 c-107 -108
-199 -196 -203 -196 -3 0 -155 151 -336 336 -181 185 -349 356 -373 380 l-45
44 1 73 c1 78 10 186 18 227 3 14 7 42 10 63 6 47 48 199 77 275 57 153 175
349 280 467 108 121 1028 1035 1057 1049 84 44 209 -15 242 -112 12 -35 13
-44 8 -102 -2 -18 -130 -153 -468 -492 -407 -408 -468 -473 -482 -514 -18 -52
-16 -91 8 -142 19 -40 72 -82 110 -87 15 -2 30 -4 33 -5 14 -5 58 4 83 16 15
8 474 462 1020 1007 762 761 1001 995 1028 1003 40 12 82 8 126 -12z m689
-295 c28 -9 108 -79 90 -79 -5 0 -2 -10 6 -22 16 -26 16 -90 0 -128 -8 -19
-416 -440 -427 -440 -1 0 -18 26 -38 58 -19 31 -48 68 -64 82 -40 36 -120 90
-132 90 -6 0 -11 4 -11 8 0 11 392 405 423 425 41 27 83 29 153 6z m833 -189
c39 -22 90 -90 92 -122 7 -103 45 -60 -674 -779 -365 -365 -671 -676 -680
-692 -23 -35 -28 -105 -12 -143 37 -88 145 -136 232 -103 15 5 373 354 803
783 832 830 792 795 879 780 113 -20 183 -149 134 -246 -12 -25 -219 -236
-1180 -1201 -230 -230 -358 -367 -368 -390 -61 -147 102 -297 243 -223 12 7
323 312 690 678 696 695 687 688 765 683 56 -4 111 -45 146 -110 23 -44 20
-111 -7 -153 -9 -15 -310 -320 -669 -679 -358 -358 -659 -666 -668 -683 -10
-20 -15 -51 -14 -87 2 -52 6 -60 49 -105 42 -44 52 -50 101 -55 35 -3 66 0 87
8 19 9 229 210 525 505 270 271 503 495 517 499 66 20 132 5 183 -43 36 -34
53 -67 60 -115 11 -80 5 -86 -401 -490 -584 -582 -1395 -1387 -1413 -1403 -35
-32 -224 -152 -231 -148 -4 3 -8 2 -8 -3 0 -9 -23 -21 -147 -73 -91 -38 -190
-68 -293 -89 -30 -6 -66 -14 -80 -16 -14 -3 -85 -8 -158 -11 l-134 -5 -416
415 c-229 228 -573 571 -764 761 -329 326 -348 347 -349 383 -1 20 -1 41 0 45
1 5 4 45 6 90 3 45 7 93 10 107 3 14 8 45 11 70 6 52 11 69 54 205 37 114 140
336 170 365 3 3 14 19 24 35 11 17 47 64 80 105 76 93 1044 1063 1088 1090 59
35 140 24 200 -29 32 -28 62 -87 54 -107 -3 -8 -1 -14 5 -14 6 0 6 -6 0 -19
-6 -10 -8 -21 -5 -24 16 -16 -65 -103 -490 -524 -256 -253 -466 -468 -466
-477 0 -9 -4 -16 -8 -16 -14 0 -7 -104 10 -135 44 -82 159 -122 235 -81 16 8
469 454 1007 991 538 537 992 985 1007 996 16 11 29 17 29 13 0 -5 5 -3 11 3
16 16 85 7 128 -17z m-4533 -2871 l371 -372 -46 -61 c-48 -63 -84 -140 -99
-211 -13 -60 -6 -204 12 -253 8 -23 15 -43 14 -45 -1 -1 7 -20 17 -42 25 -55
84 -121 293 -331 l181 -181 -79 -72 c-104 -97 -117 -105 -170 -107 -86 -4 -17
-68 -1103 1014 -159 158 -298 300 -309 315 -26 36 -32 105 -14 149 9 21 120
139 282 301 146 147 269 267 272 267 4 0 173 -167 378 -371z m1881 -851 l742
-742 -67 -67 c-37 -37 -155 -158 -262 -269 -107 -111 -211 -209 -230 -219 -36
-18 -86 -21 -130 -7 -33 10 -1350 1326 -1350 1348 0 9 -4 19 -9 23 -11 6 -8
79 4 110 7 19 544 565 555 565 3 0 339 -334 747 -742z"/>
</g>
</svg>
